<?xml version="1.0" encoding="UTF-8"?>
<svg id="Layer_2" data-name="Layer 2" xmlns="http://www.w3.org/2000/svg" viewBox="0 0 481.96 171.64">
  <g id="Layer_4" data-name="Layer 4">
    <g>
      <g>
        <path d="M14.98,163.21c2.64,0,4.56-.49,5.76-1.48,1.2-.98,1.8-2.2,1.8-3.64,0-1.3-.47-2.35-1.4-3.17-.94-.82-2.34-1.51-4.21-2.09l-4.1-1.3c-2.54-.82-4.76-1.75-6.66-2.81-1.9-1.06-3.38-2.4-4.46-4.03-1.08-1.63-1.62-3.7-1.62-6.19,0-3.98,1.5-7.14,4.5-9.47,3-2.33,7.12-3.49,12.35-3.49,2.74,0,5.16,.28,7.27,.83,2.11,.55,3.78,1.33,5,2.34,1.22,1.01,1.84,2.23,1.84,3.67,0,.96-.24,1.84-.72,2.63-.48,.79-1.08,1.43-1.8,1.91-1.1-.77-2.59-1.44-4.46-2.02s-3.91-.86-6.12-.86c-2.35,0-4.14,.41-5.36,1.22-1.22,.82-1.84,1.9-1.84,3.24,0,1.01,.41,1.85,1.22,2.52,.82,.67,2.06,1.27,3.74,1.8l4.03,1.22c4.32,1.3,7.64,3.04,9.97,5.22,2.33,2.18,3.49,5.15,3.49,8.89,0,3.98-1.55,7.22-4.64,9.72-3.1,2.5-7.52,3.74-13.28,3.74-2.93,0-5.54-.31-7.85-.94-2.3-.62-4.12-1.51-5.44-2.66-1.32-1.15-1.98-2.5-1.98-4.03,0-1.15,.35-2.15,1.04-2.99,.7-.84,1.48-1.48,2.34-1.91,1.3,1.06,2.93,2,4.9,2.84,1.97,.84,4.2,1.26,6.7,1.26Z"/>
        <path d="M44.85,158.18l-.43-6.91,18.43-2.81c-.14-1.54-.78-2.9-1.91-4.1-1.13-1.2-2.77-1.8-4.93-1.8-2.3,0-4.2,.77-5.69,2.3-1.49,1.54-2.28,3.74-2.38,6.62l.29,4.54c.43,2.78,1.58,4.8,3.46,6.05,1.87,1.25,4.15,1.87,6.84,1.87,2.02,0,3.9-.29,5.65-.86,1.75-.58,3.16-1.2,4.21-1.87,.67,.43,1.24,1.01,1.69,1.73,.46,.72,.68,1.49,.68,2.3,0,1.34-.56,2.5-1.69,3.46-1.13,.96-2.65,1.68-4.57,2.16-1.92,.48-4.13,.72-6.62,.72-3.74,0-7.07-.7-9.97-2.09s-5.18-3.48-6.84-6.26c-1.66-2.78-2.48-6.24-2.48-10.37,0-2.98,.48-5.59,1.44-7.85,.96-2.26,2.24-4.12,3.85-5.58,1.61-1.46,3.46-2.56,5.54-3.28,2.09-.72,4.26-1.08,6.52-1.08,3.26,0,6.11,.65,8.53,1.94,2.42,1.3,4.33,3.07,5.72,5.33,1.39,2.26,2.09,4.85,2.09,7.78,0,1.44-.38,2.53-1.15,3.28-.77,.74-1.83,1.21-3.17,1.4l-23.11,3.38Z"/>
        <path d="M105.55,135.42c1.39,0,2.56,.3,3.49,.9,.94,.6,1.4,1.64,1.4,3.13,0,.82-.25,2.14-.76,3.96-.5,1.83-1.15,3.92-1.94,6.3s-1.67,4.82-2.63,7.34c-.96,2.52-1.93,4.88-2.92,7.09-.98,2.21-1.86,4.06-2.63,5.54-.53,.38-1.32,.72-2.38,1.01s-2.26,.43-3.6,.43c-1.49,0-2.78-.21-3.89-.61-1.11-.41-1.87-1.04-2.3-1.91-.53-1.01-1.19-2.42-1.98-4.25-.79-1.82-1.62-3.91-2.48-6.26-.86-2.35-1.74-4.76-2.63-7.24-.89-2.47-1.7-4.87-2.45-7.2-.74-2.33-1.33-4.36-1.76-6.08,.58-.62,1.33-1.14,2.27-1.55,.94-.41,1.96-.61,3.06-.61,1.39,0,2.53,.3,3.42,.9,.89,.6,1.55,1.69,1.98,3.28l3.38,11.67c.38,1.3,.79,2.64,1.22,4.03,.43,1.39,.84,2.7,1.22,3.92,.38,1.22,.7,2.24,.94,3.06h.29c1.3-3.98,2.56-8.22,3.78-12.71,1.22-4.49,2.31-8.84,3.28-13.07,1.34-.72,2.88-1.08,4.61-1.08Z"/>
        <path d="M120.96,158.18l-.43-6.91,18.43-2.81c-.14-1.54-.78-2.9-1.91-4.1-1.13-1.2-2.77-1.8-4.93-1.8-2.3,0-4.2,.77-5.69,2.3-1.49,1.54-2.28,3.74-2.38,6.62l.29,4.54c.43,2.78,1.58,4.8,3.46,6.05,1.87,1.25,4.15,1.87,6.84,1.87,2.02,0,3.9-.29,5.65-.86,1.75-.58,3.16-1.2,4.21-1.87,.67,.43,1.24,1.01,1.69,1.73,.46,.72,.68,1.49,.68,2.3,0,1.34-.56,2.5-1.69,3.46-1.13,.96-2.65,1.68-4.57,2.16-1.92,.48-4.13,.72-6.62,.72-3.74,0-7.07-.7-9.97-2.09s-5.18-3.48-6.84-6.26c-1.66-2.78-2.48-6.24-2.48-10.37,0-2.98,.48-5.59,1.44-7.85,.96-2.26,2.24-4.12,3.85-5.58,1.61-1.46,3.46-2.56,5.54-3.28,2.09-.72,4.26-1.08,6.52-1.08,3.26,0,6.11,.65,8.53,1.94,2.42,1.3,4.33,3.07,5.72,5.33,1.39,2.26,2.09,4.85,2.09,7.78,0,1.44-.38,2.53-1.15,3.28-.77,.74-1.83,1.21-3.17,1.4l-23.11,3.38Z"/>
        <path d="M187.63,148.17v6.84h-10.01v-6.55c0-1.87-.55-3.25-1.66-4.14-1.1-.89-2.57-1.33-4.39-1.33-1.3,0-2.47,.16-3.53,.47-1.06,.31-2.02,.71-2.88,1.19v10.37h-10.01v-11.38c0-1.2,.25-2.17,.76-2.92,.5-.74,1.24-1.45,2.2-2.12,1.49-1.01,3.41-1.85,5.76-2.52,2.35-.67,4.97-1.01,7.85-1.01,5.04,0,8.95,1.12,11.74,3.35,2.78,2.23,4.18,5.48,4.18,9.76Zm-32.47,3.46h10.01v18.79c-.43,.1-1.06,.22-1.87,.36-.82,.14-1.7,.22-2.66,.22-1.87,0-3.25-.34-4.14-1.01-.89-.67-1.33-1.9-1.33-3.67v-14.69Zm22.46,0h10.01v18.79c-.43,.1-1.06,.22-1.87,.36-.82,.14-1.68,.22-2.59,.22-1.92,0-3.32-.34-4.21-1.01-.89-.67-1.33-1.9-1.33-3.67v-14.69Z"/>
        <path d="M205.27,152.7l-7.2-.07v-22.03c0-1.15,.35-2.09,1.04-2.81,.7-.72,1.64-1.08,2.84-1.08,.67,0,1.32,.07,1.94,.22,.62,.14,1.08,.29,1.37,.43v25.34Zm-7.2-6.91h7.27v24.62c-.29,.05-.75,.14-1.37,.29-.62,.14-1.27,.22-1.94,.22-1.34,0-2.34-.26-2.99-.79-.65-.53-.97-1.37-.97-2.52v-21.82Zm3.89-13.03v-6.05h23.9c.19,.29,.37,.68,.54,1.19s.25,1.07,.25,1.69c0,.96-.23,1.73-.68,2.3-.46,.58-1.12,.86-1.98,.86h-22.03Zm0,19.51v-5.9h21.38c.19,.29,.37,.67,.54,1.15,.17,.48,.25,1.03,.25,1.66,0,.96-.23,1.72-.68,2.27-.46,.55-1.12,.83-1.98,.83h-19.51Z"/>
        <path d="M233.49,126.49c0-1.15,.41-2.14,1.22-2.95,.82-.82,1.85-1.22,3.1-1.22s2.34,.41,3.13,1.22c.79,.82,1.19,1.8,1.19,2.95s-.4,2.2-1.19,2.99-1.84,1.19-3.13,1.19-2.28-.4-3.1-1.19c-.82-.79-1.22-1.79-1.22-2.99Zm7.85,28.51h-7.06v-17.93c.29-.1,.73-.2,1.33-.32,.6-.12,1.26-.18,1.98-.18,1.3,0,2.24,.24,2.84,.72,.6,.48,.9,1.32,.9,2.52v15.19Zm-7.06-3.53h7.06v18.86c-.29,.1-.72,.22-1.3,.36-.58,.14-1.22,.22-1.94,.22-1.25,0-2.2-.25-2.84-.76-.65-.5-.97-1.33-.97-2.48v-16.2Z"/>
        <path d="M258.98,153.57h-6.98v-26.06c.29-.1,.73-.2,1.33-.32,.6-.12,1.24-.18,1.91-.18,1.3,0,2.24,.24,2.84,.72,.6,.48,.9,1.32,.9,2.52v23.33Zm-6.98-2.09h6.98v9.36c0,1.78,.53,3.04,1.58,3.78,1.05,.75,2.5,1.12,4.32,1.12,.77,0,1.63-.13,2.59-.4,.96-.26,1.78-.56,2.45-.9,.29,.34,.56,.74,.83,1.22,.26,.48,.4,1.03,.4,1.66,0,1.2-.64,2.18-1.91,2.95-1.27,.77-3.13,1.15-5.58,1.15-3.55,0-6.38-.78-8.5-2.34-2.11-1.56-3.17-4.16-3.17-7.81v-9.79Zm3.89-8.21v-5.69h14.47c.14,.29,.3,.68,.47,1.19,.17,.5,.25,1.04,.25,1.62,0,.96-.23,1.68-.68,2.16-.46,.48-1.07,.72-1.84,.72h-12.67Z"/>
        <path d="M308.95,148.38v7.2h-7.06v-6.84c0-2.45-.7-4.25-2.09-5.4-1.39-1.15-3.24-1.73-5.54-1.73-1.73,0-3.28,.22-4.64,.65-1.37,.43-2.56,.94-3.56,1.51v11.81h-7.06v-11.88c0-1.06,.23-1.93,.68-2.63,.46-.7,1.16-1.36,2.12-1.98,1.34-.82,3.1-1.55,5.26-2.2,2.16-.65,4.56-.97,7.2-.97,4.61,0,8.21,1.03,10.8,3.1,2.59,2.06,3.89,5.18,3.89,9.36Zm-29.95,3.46h7.06v18.5c-.29,.1-.72,.22-1.3,.36-.58,.14-1.2,.22-1.87,.22-1.3,0-2.27-.25-2.92-.76-.65-.5-.97-1.33-.97-2.48v-15.84Zm22.9,0h7.06v18.5c-.29,.1-.73,.22-1.33,.36-.6,.14-1.24,.22-1.91,.22-1.3,0-2.26-.25-2.88-.76-.62-.5-.94-1.33-.94-2.48v-15.84Z"/>
        <path d="M321.98,157.74l-.29-5.26,20.66-2.95c-.14-2.3-.96-4.22-2.45-5.76-1.49-1.54-3.55-2.3-6.19-2.3-2.78,0-5.08,.97-6.88,2.92-1.8,1.94-2.72,4.74-2.77,8.39l.07,2.52c.38,3.5,1.62,6.13,3.71,7.88s4.86,2.63,8.32,2.63c2.02,0,3.86-.31,5.54-.94,1.68-.62,3-1.32,3.96-2.09,.58,.38,1.04,.84,1.4,1.37,.36,.53,.54,1.13,.54,1.8,0,1.06-.53,2-1.58,2.84-1.06,.84-2.47,1.5-4.25,1.98-1.78,.48-3.79,.72-6.05,.72-3.7,0-6.92-.68-9.68-2.05-2.76-1.37-4.91-3.4-6.44-6.08-1.54-2.69-2.3-6-2.3-9.94,0-2.83,.42-5.33,1.26-7.49,.84-2.16,2-3.98,3.49-5.47s3.23-2.62,5.22-3.38c1.99-.77,4.14-1.15,6.44-1.15,3.02,0,5.69,.62,7.99,1.87,2.3,1.25,4.1,3,5.4,5.26,1.3,2.26,1.94,4.82,1.94,7.71,0,1.2-.28,2.06-.83,2.59s-1.36,.86-2.41,1.01l-23.83,3.38Z"/>
        <path d="M381.95,161.34c0,3.17-1.18,5.65-3.53,7.45-2.35,1.8-5.76,2.7-10.22,2.7-3.74,0-6.8-.58-9.18-1.73-2.38-1.15-3.56-2.5-3.56-4.03,0-.72,.18-1.38,.54-1.98,.36-.6,.85-1.09,1.48-1.48,1.3,.91,2.82,1.73,4.57,2.45,1.75,.72,3.75,1.08,6.01,1.08,4.61,0,6.91-1.49,6.91-4.46,0-1.25-.4-2.27-1.19-3.06s-1.98-1.36-3.56-1.69l-5.18-1.37c-3.17-.77-5.5-1.93-6.98-3.49-1.49-1.56-2.23-3.56-2.23-6.01,0-2.74,1.12-5.05,3.35-6.95,2.23-1.9,5.51-2.84,9.83-2.84,2.26,0,4.25,.23,5.98,.68,1.73,.46,3.08,1.08,4.07,1.87,.98,.79,1.48,1.67,1.48,2.63,0,.72-.17,1.36-.5,1.91-.34,.55-.77,.97-1.3,1.26-.58-.38-1.33-.79-2.27-1.22-.94-.43-2.02-.79-3.24-1.08-1.22-.29-2.51-.43-3.85-.43-2.02,0-3.62,.36-4.82,1.08-1.2,.72-1.8,1.75-1.8,3.1,0,.96,.35,1.79,1.04,2.48,.7,.7,1.84,1.24,3.42,1.62l4.39,1.08c3.55,.82,6.17,2.08,7.85,3.78,1.68,1.7,2.52,3.92,2.52,6.66Z"/>
        <path d="M414.79,161.34c0,3.17-1.18,5.65-3.53,7.45-2.35,1.8-5.76,2.7-10.22,2.7-3.74,0-6.8-.58-9.18-1.73-2.38-1.15-3.56-2.5-3.56-4.03,0-.72,.18-1.38,.54-1.98,.36-.6,.85-1.09,1.48-1.48,1.3,.91,2.82,1.73,4.57,2.45,1.75,.72,3.75,1.08,6.01,1.08,4.61,0,6.91-1.49,6.91-4.46,0-1.25-.4-2.27-1.19-3.06s-1.98-1.36-3.56-1.69l-5.18-1.37c-3.17-.77-5.5-1.93-6.98-3.49-1.49-1.56-2.23-3.56-2.23-6.01,0-2.74,1.12-5.05,3.35-6.95s5.51-2.84,9.83-2.84c2.26,0,4.25,.23,5.98,.68,1.73,.46,3.08,1.08,4.07,1.87,.98,.79,1.48,1.67,1.48,2.63,0,.72-.17,1.36-.5,1.91s-.77,.97-1.3,1.26c-.58-.38-1.33-.79-2.27-1.22-.94-.43-2.02-.79-3.24-1.08-1.22-.29-2.51-.43-3.85-.43-2.02,0-3.62,.36-4.82,1.08-1.2,.72-1.8,1.75-1.8,3.1,0,.96,.35,1.79,1.04,2.48,.7,.7,1.84,1.24,3.42,1.62l4.39,1.08c3.55,.82,6.17,2.08,7.85,3.78,1.68,1.7,2.52,3.92,2.52,6.66Z"/>
        <path d="M461.01,155.51v13.68c-.58,.53-1.39,.96-2.45,1.3-1.06,.33-2.33,.5-3.82,.5s-2.96-.25-4.28-.76c-1.32-.5-2.44-1.62-3.35-3.35l-9.36-17.42c-.58-1.1-1.14-2.22-1.69-3.35-.55-1.13-1.08-2.24-1.58-3.35-.5-1.1-1-2.18-1.48-3.24l-9.86,2.23v-13.18c.58-.77,1.44-1.36,2.59-1.76,1.15-.41,2.4-.61,3.74-.61,1.54,0,2.98,.26,4.32,.79,1.34,.53,2.45,1.66,3.31,3.38l9.43,17.42c.58,1.06,1.14,2.15,1.69,3.28,.55,1.13,1.09,2.26,1.62,3.38,.53,1.13,1.01,2.22,1.44,3.28l9.72-2.23Zm-37.87-17.21l9.36-.14c.19,1.97,.33,3.96,.43,5.98,.1,2.02,.16,3.97,.18,5.87,.02,1.9,.04,3.76,.04,5.58v14.83c-.43,.1-1.09,.22-1.98,.36-.89,.14-1.76,.22-2.63,.22-1.97,0-3.36-.35-4.18-1.04-.82-.7-1.22-1.91-1.22-3.64v-28.01Zm37.87,20.52l-9.29,.14c-.38-3.6-.59-7.04-.61-10.33-.02-3.29-.04-6.44-.04-9.47v-12.46c.43-.1,1.08-.22,1.94-.36,.86-.14,1.75-.22,2.66-.22,1.92,0,3.29,.35,4.1,1.04,.82,.7,1.22,1.91,1.22,3.64v28.01Z"/>
        <path d="M481.96,153.21h-10.3v-26.42c.43-.1,1.1-.23,2.02-.4,.91-.17,1.82-.25,2.74-.25,1.92,0,3.32,.35,4.21,1.04,.89,.7,1.33,1.98,1.33,3.85v22.18Zm-10.3-12.6h10.3v29.81c-.43,.1-1.11,.22-2.02,.36-.91,.14-1.85,.22-2.81,.22-1.97,0-3.37-.37-4.21-1.12-.84-.74-1.26-1.98-1.26-3.71v-25.56Z"/>
      </g>
      <g id="Logo">
        <path d="M259.89,51.55c-.59-1.4-1.18-2.55-1.77-3.45h-22.21l-6.08,16.34h22.45c2.48,0,4.51-.7,6.1-2.1,1.59-1.4,2.39-3.5,2.39-6.29,0-1.6-.29-3.1-.88-4.5Z"/>
        <path d="M288.87,4.21c-.61-1.71-1.22-3.11-1.83-4.21h-44.66c1.37,1.09,2.58,2.6,3.61,4.54,1.03,1.94,1.55,4.24,1.55,6.9,0,2.84-.42,5.69-1.25,8.53h34.71c2.56,0,4.67-.86,6.32-2.56,1.65-1.71,2.47-4.28,2.47-7.69,0-1.95-.3-3.79-.92-5.5Z"/>
        <polygon points="225.72 19.97 186.86 19.97 200.37 83.77 225.72 19.97"/>
      </g>
    </g>
  </g>
</svg>